<svg width="96" height="115" xmlns="http://www.w3.org/2000/svg"><path d="M49.7 114.3l45.9-28V53.2L69.7 68.6v11.8l15.4-8.9v7.3L61.8 92.5V66.4l33.8-19.9V32.2l-45.9 27zM1.1 27.5l47.3 27.3 47.3-27.3L48.4.2 1.1 27.5zm27.3 3.7c-2.5 1.4-6.5 1.4-9 0s-2.5-3.8 0-5.2c2.5-1.4 6.5-1.4 9 0 2.4 1.4 2.4 3.7 0 5.2zm5.3-13.4c2.5-1.4 6.5-1.4 9 0s2.5 3.8 0 5.2c-2.5 1.4-6.5 1.4-9 0-2.5-1.5-2.5-3.8 0-5.2zm14.8 25c-2.5 1.4-6.5 1.4-9 0s-2.5-3.8 0-5.2c2.5-1.4 6.5-1.4 9 0 2.4 1.4 2.4 3.7 0 5.2zM68 21.1c2.5-1.4 6.5-1.4 9 0s2.5 3.8 0 5.2c-2.5 1.4-6.5 1.4-9 0s-2.5-3.8 0-5.2zm-5.3 13.4c-2.5 1.4-6.5 1.4-9 0s-2.5-3.8 0-5.2c2.5-1.4 6.5-1.4 9 0s2.5 3.8 0 5.2zm-5.8-25c2.5 1.4 2.5 3.8 0 5.2-2.5 1.4-6.5 1.4-9 0s-2.5-3.8 0-5.2c2.5-1.4 6.5-1.4 9 0zM14.5 40L.4 31.8v56.4l44.9 25.9V97.9L14.5 80.1z" fill="#FFF" fill-opacity=".2"/></svg>