<svg width="298" height="298" fill="none" xmlns="http://www.w3.org/2000/svg"><path fill="#05275B" d="M278.872 130.878H18.122v157.054h260.75z"/><path fill-rule="evenodd" clip-rule="evenodd" d="M51.219 293.344h9.312V186.25H51.22v107.094zm-32.594 0h9.313v-79.156h-9.313v79.156zM41.906 9.313c-7.701 0-13.968 6.267-13.968 13.968 0 7.702 6.267 13.969 13.968 13.969 7.702 0 13.969-6.267 13.969-13.969 0-7.701-6.267-13.968-13.969-13.968zm0 37.25c-12.837 0-23.281-10.445-23.281-23.282S29.069 0 41.906 0c12.837 0 23.282 10.444 23.282 23.281 0 12.837-10.445 23.282-23.282 23.282z" fill="#95C0FF"/><path fill-rule="evenodd" clip-rule="evenodd" d="M29.865 218.844H9.313V74.5c0-10.272 8.353-18.625 18.624-18.625h18.625c15.408 0 27.938 12.53 27.938 27.938v27.937h46.562v9.312H65.188v-37.25c0-10.271-8.354-18.624-18.626-18.624H27.939c-5.136 0-9.313 4.176-9.313 9.312v135.031h7.385l39.177-39.177V149H74.5v25.209l-44.635 44.635z" fill="#95C0FF"/><path fill-rule="evenodd" clip-rule="evenodd" d="M121.064 139.688H48.068L28.27 90.201l8.65-3.464 17.453 43.638h66.691v9.313zm116.405 153.656h9.312V186.25h-9.312v107.094zm32.593 0h9.313v-74.5h-9.313v74.5zM256.094 9.313c-7.702 0-13.969 6.267-13.969 13.968 0 7.702 6.267 13.969 13.969 13.969 7.701 0 13.968-6.267 13.968-13.969 0-7.701-6.267-13.968-13.968-13.968zm0 37.25c-12.838 0-23.282-10.445-23.282-23.282S243.256 0 256.094 0c12.837 0 23.281 10.444 23.281 23.281 0 12.837-10.444 23.282-23.281 23.282z" fill="#95C0FF"/><path fill-rule="evenodd" clip-rule="evenodd" d="M288.688 223.5h-15.897L223.5 174.209V149h9.312v21.354l43.834 43.834h2.729V74.5c0-5.136-4.177-9.313-9.313-9.313h-18.624c-10.272 0-18.626 8.354-18.626 18.626v37.249h-55.874v-9.312H223.5V83.812c0-15.407 12.53-27.937 27.938-27.937h18.624c10.272 0 18.626 8.353 18.626 18.625v149z" fill="#95C0FF"/><path fill-rule="evenodd" clip-rule="evenodd" d="M249.934 139.688h-72.996v-9.313h66.691l17.452-43.638 8.651 3.464-19.798 49.487zM88.469 298H298v-9.312H88.469V298zM0 298h79.156v-9.312H0V298zm205.565-193.872c-8.894-23.29-31.625-38.94-56.564-38.94-24.93 0-47.657 15.635-56.555 38.912l-8.698-3.325c10.262-26.857 36.486-44.9 65.253-44.9 28.78 0 55.004 18.052 65.271 44.928l-8.707 3.325zm-56.564 91.435c-28.752 0-54.976-18.039-65.248-44.882l8.693-3.329c8.908 23.267 31.63 38.898 56.555 38.898 24.93 0 47.657-15.636 56.555-38.912l8.702 3.324c-10.267 26.858-36.491 44.901-65.257 44.901z" fill="#95C0FF"/><path fill-rule="evenodd" clip-rule="evenodd" d="M220.538 59.06C202.099 39.28 176.029 27.937 149 27.937c-27.025 0-53.096 11.343-71.53 31.114l-6.812-6.352C90.852 31.043 119.404 18.625 149 18.625c29.599 0 58.156 12.423 78.35 34.084l-6.812 6.35zm-71.539 173.752c-29.595 0-58.147-12.418-78.332-34.065l6.812-6.351C95.91 212.162 121.974 223.5 149 223.5c27.03 0 53.095-11.343 71.529-31.113l6.813 6.351c-20.19 21.656-48.742 34.074-78.342 34.074zM97.781 93.125H200.22v-9.313H97.781v9.313zm0 74.5H200.22v-9.313H97.781v9.313zm23.281-37.25h55.876v-9.313h-55.876v9.313z" fill="#95C0FF"/><path fill-rule="evenodd" clip-rule="evenodd" d="M149 65.188c-11.012 0-23.281 24.86-23.281 60.531S137.988 186.25 149 186.25c11.012 0 23.281-24.86 23.281-60.531 0-35.672-12.269-60.531-23.281-60.531zm0 130.374c-18.578 0-32.594-30.028-32.594-69.843 0-39.816 14.016-69.844 32.594-69.844 18.578 0 32.594 30.028 32.594 69.844 0 39.815-14.016 69.843-32.594 69.843z" fill="#95C0FF"/></svg>