<svg width="298" height="298" fill="none" xmlns="http://www.w3.org/2000/svg"><path d="M278.872 147.993H18.122v131.885h260.75V147.993z" fill="#06295D"/><path fill-rule="evenodd" clip-rule="evenodd" d="M32.594 153.656h32.593v-9.312H32.594v9.312z" fill="#95C0FF"/><path fill-rule="evenodd" clip-rule="evenodd" d="M18.625 139.688c-5.136 0-9.313 4.176-9.313 9.312 0 5.136 4.177 9.312 9.313 9.312 5.136 0 9.313-4.176 9.313-9.312 0-5.136-4.177-9.312-9.313-9.312zm0 27.937C8.353 167.625 0 159.272 0 149s8.353-18.625 18.625-18.625S37.25 138.728 37.25 149s-8.353 18.625-18.625 18.625zm53.292-56.657L43.979 92.343l5.169-7.748 27.937 18.625-5.168 7.748z" fill="#95C0FF"/><path fill-rule="evenodd" clip-rule="evenodd" d="M37.25 74.5c-5.136 0-9.313 4.177-9.313 9.313 0 5.135 4.177 9.312 9.313 9.312 5.136 0 9.313-4.177 9.313-9.313 0-5.135-4.177-9.312-9.313-9.312zm0 27.938c-10.272 0-18.625-8.354-18.625-18.626 0-10.271 8.353-18.624 18.625-18.624s18.625 8.353 18.625 18.624c0 10.272-8.353 18.626-18.625 18.626zm46.563-74.5c-5.136 0-9.313 4.176-9.313 9.312 0 5.136 4.177 9.313 9.313 9.313 5.135 0 9.312-4.177 9.312-9.313 0-5.136-4.177-9.313-9.313-9.313zm0 27.937c-10.272 0-18.626-8.353-18.626-18.625s8.354-18.625 18.626-18.625c10.271 0 18.625 8.353 18.625 18.625s-8.354 18.625-18.626 18.625z" fill="#95C0FF"/><path fill-rule="evenodd" clip-rule="evenodd" d="M103.22 77.084L84.595 49.147l7.748-5.169 18.625 27.938-7.748 5.168zm129.592 76.572h32.594v-9.312h-32.594v9.312z" fill="#95C0FF"/><path fill-rule="evenodd" clip-rule="evenodd" d="M279.375 139.688c-5.136 0-9.313 4.176-9.313 9.312 0 5.136 4.177 9.312 9.313 9.312 5.136 0 9.313-4.176 9.313-9.312 0-5.136-4.177-9.312-9.313-9.312zm0 27.937c-10.272 0-18.625-8.353-18.625-18.625s8.353-18.625 18.625-18.625S298 138.728 298 149s-8.353 18.625-18.625 18.625zm-53.29-56.657l-5.168-7.748 27.937-18.625 5.169 7.748-27.938 18.625z" fill="#95C0FF"/><path fill-rule="evenodd" clip-rule="evenodd" d="M260.75 74.5c-5.136 0-9.312 4.177-9.312 9.313 0 5.135 4.176 9.312 9.312 9.312 5.136 0 9.312-4.177 9.312-9.313 0-5.135-4.176-9.312-9.312-9.312zm0 27.938c-10.272 0-18.625-8.354-18.625-18.626 0-10.271 8.353-18.624 18.625-18.624s18.625 8.353 18.625 18.624c0 10.272-8.353 18.626-18.625 18.626zm-46.562-74.5c-5.136 0-9.313 4.176-9.313 9.312 0 5.136 4.177 9.313 9.313 9.313 5.135 0 9.312-4.177 9.312-9.313 0-5.136-4.177-9.313-9.312-9.313zm0 27.937c-10.272 0-18.626-8.353-18.626-18.625s8.354-18.625 18.626-18.625c10.271 0 18.624 8.353 18.624 18.625s-8.353 18.625-18.624 18.625zm-69.844 9.313h9.312V32.593h-9.312v32.593z" fill="#95C0FF"/><path fill-rule="evenodd" clip-rule="evenodd" d="M194.78 77.084l-7.748-5.168 18.625-27.938 7.748 5.169-18.625 27.937zM149 9.313c-5.136 0-9.312 4.176-9.312 9.312 0 5.136 4.176 9.313 9.312 9.313 5.136 0 9.312-4.177 9.312-9.313 0-5.136-4.176-9.313-9.312-9.313zm0 27.937c-10.272 0-18.625-8.353-18.625-18.625S138.728 0 149 0s18.625 8.353 18.625 18.625S159.272 37.25 149 37.25zm99.854 176.155l-27.937-18.625 5.168-7.748 27.938 18.625-5.169 7.748z" fill="#95C0FF"/><path fill-rule="evenodd" clip-rule="evenodd" d="M260.75 204.875c-5.136 0-9.312 4.177-9.312 9.313 0 5.135 4.176 9.312 9.312 9.312 5.136 0 9.312-4.177 9.312-9.312 0-5.136-4.176-9.313-9.312-9.313zm0 27.937c-10.272 0-18.625-8.353-18.625-18.624 0-10.272 8.353-18.626 18.625-18.626s18.625 8.354 18.625 18.626c0 10.271-8.353 18.624-18.625 18.624zm-46.562 18.626c-5.136 0-9.313 4.176-9.313 9.312 0 5.136 4.177 9.312 9.313 9.312 5.135 0 9.312-4.176 9.312-9.312 0-5.136-4.177-9.312-9.312-9.312zm0 27.937c-10.272 0-18.626-8.353-18.626-18.625s8.354-18.625 18.626-18.625c10.271 0 18.624 8.353 18.624 18.625s-8.353 18.625-18.624 18.625z" fill="#95C0FF"/><path fill-rule="evenodd" clip-rule="evenodd" d="M205.657 254.022l-18.625-27.938 7.748-5.168 18.625 27.937-7.748 5.169zM49.148 213.405l-5.169-7.748 27.938-18.625 5.168 7.748-27.937 18.625z" fill="#95C0FF"/><path fill-rule="evenodd" clip-rule="evenodd" d="M37.25 204.875c-5.136 0-9.313 4.177-9.313 9.313 0 5.135 4.177 9.312 9.313 9.312 5.136 0 9.313-4.177 9.313-9.312 0-5.136-4.177-9.313-9.313-9.313zm0 27.937c-10.272 0-18.625-8.353-18.625-18.624 0-10.272 8.353-18.626 18.625-18.626s18.625 8.354 18.625 18.626c0 10.271-8.353 18.624-18.625 18.624zm46.563 18.626c-5.136 0-9.313 4.176-9.313 9.312 0 5.136 4.177 9.312 9.313 9.312 5.135 0 9.312-4.176 9.312-9.312 0-5.136-4.177-9.312-9.313-9.312zm0 27.937c-10.272 0-18.626-8.353-18.626-18.625s8.354-18.625 18.626-18.625c10.271 0 18.625 8.353 18.625 18.625s-8.354 18.625-18.626 18.625zm60.531-13.969h9.312v-32.594h-9.312v32.594z" fill="#95C0FF"/><path fill-rule="evenodd" clip-rule="evenodd" d="M92.343 254.022l-7.748-5.169 18.625-27.937 7.748 5.168-18.625 27.938zM149 270.062c-5.136 0-9.312 4.177-9.312 9.313 0 5.136 4.176 9.313 9.312 9.313 5.136 0 9.312-4.177 9.312-9.313 0-5.136-4.176-9.313-9.312-9.313zM149 298c-10.272 0-18.625-8.353-18.625-18.625S138.728 260.75 149 260.75s18.625 8.353 18.625 18.625S159.272 298 149 298zm0-107.094c-12.837 0-23.281-10.444-23.281-23.281h9.312c0 7.701 6.268 13.969 13.969 13.969s13.969-6.268 13.969-13.969c0-6.258-4.982-9.015-13.792-13.34l-4.465-2.212c-8.903-4.372-18.993-9.336-18.993-21.698 0-12.837 10.444-23.281 23.281-23.281 12.837 0 23.281 10.444 23.281 23.281h-9.312c0-7.701-6.268-13.969-13.969-13.969s-13.969 6.268-13.969 13.969c0 6.258 4.982 9.014 13.792 13.34l4.465 2.212c8.903 4.372 18.993 9.336 18.993 21.698 0 12.837-10.444 23.281-23.281 23.281z" fill="#95C0FF"/><path fill-rule="evenodd" clip-rule="evenodd" d="M144.344 111.75h9.312V97.781h-9.312v13.969zm0 88.469h9.312V186.25h-9.312v13.969zm-37.25-46.563h9.312v-9.312h-9.312v9.312zm74.5 0h9.312v-9.312h-9.312v9.312z" fill="#95C0FF"/><path fill-rule="evenodd" clip-rule="evenodd" d="M149 83.813c-35.946 0-65.188 29.241-65.188 65.187s29.242 65.188 65.188 65.188 65.188-29.242 65.188-65.188S184.946 83.812 149 83.812zm0 139.687c-41.077 0-74.5-33.423-74.5-74.5s33.423-74.5 74.5-74.5 74.5 33.423 74.5 74.5-33.423 74.5-74.5 74.5z" fill="#95C0FF"/></svg>