<svg width="298" height="298" fill="none" xmlns="http://www.w3.org/2000/svg"><g clip-path="url(#clip0)"><path fill="#06295D" d="M-1 167h299v130H-1z"/><path fill-rule="evenodd" clip-rule="evenodd" d="M135.031 251.438h-9.312c0-10.272 8.353-18.626 18.625-18.626h51.218c5.136 0 9.313-4.176 9.313-9.312 0-5.136-4.177-9.312-9.313-9.312h-42.725l-51.219-18.626H60.531v-9.312h42.726l51.219 18.625h41.086c10.272 0 18.626 8.353 18.626 18.625s-8.354 18.625-18.626 18.625h-51.218c-5.136 0-9.313 4.177-9.313 9.313z" fill="#95C0FF"/><path fill-rule="evenodd" clip-rule="evenodd" d="M173.422 298h-11.249l-79.157-27.938H60.531v-9.312H84.61l79.156 27.938h7.375L285.83 229.05c1.28-1.462 2.859-3.92 2.859-5.55 0-4.917-3.837-8.959-8.67-9.289l-73.755 23.048-2.776-8.893 75.888-23.491c10.272 0 18.625 8.358 18.625 18.625 0 6.388-5.401 11.985-6.016 12.6l-1.15.843L173.422 298zM37.25 260.75h9.313v-9.312H37.25v9.312zm-18.625 0h9.313v-9.312h-9.313v9.312z" fill="#95C0FF"/><path fill-rule="evenodd" clip-rule="evenodd" d="M55.875 279.375H0v-9.313h55.875V186.25H0v-9.312h55.875c5.136 0 9.313 4.176 9.313 9.312v83.812c0 5.136-4.177 9.313-9.313 9.313zm9.313-121.063h223.5V149h-223.5v9.312zm65.187-60.531h-9.313V0h46.563v65.188h-9.313V9.312h-27.937v88.47zm74.5-32.593h-9.313V9.312h-9.312v55.876h-9.312V0h27.937v65.188zm37.25 37.25h-9.313v-43.68L223.5 54.1v48.337h-9.312v-63.41l27.937 13.97v49.44z" fill="#95C0FF"/><path fill-rule="evenodd" clip-rule="evenodd" d="M167.625 153.656h-9.313c0-18.625-16.711-37.25-37.25-37.25-20.538 0-37.25 18.625-37.25 37.25H74.5c0-27.937 20.888-46.562 46.562-46.562 25.675 0 46.563 18.625 46.563 46.562zM139.688 27.938H149v-9.313h-9.312v9.313zm0 18.625H149V37.25h-9.312v9.313zm0 18.625H149v-9.313h-9.312v9.313z" fill="#95C0FF"/><path fill-rule="evenodd" clip-rule="evenodd" d="M237.469 158.312c-23.105 0-41.907-18.797-41.907-41.906V83.812H149v37.25h-9.312V74.5h65.187v41.906c0 17.973 14.621 32.594 32.594 32.594 16.786 0 29.758-13.936 32.184-27.938h-55.465v-9.312h65.187v4.656c0 22.322-19.584 41.906-41.906 41.906z" fill="#95C0FF"/><path fill-rule="evenodd" clip-rule="evenodd" d="M158.312 102.438h41.907v-9.313h-41.907v9.313zm9.313 18.624h32.594v-9.312h-32.594v9.312zm102.437-18.624h-9.312V83.812h-23.281V74.5h32.593v27.938zm-167.624 51.218h9.312v-23.281h-9.312v23.281zm18.624-13.968h9.313v-9.313h-9.313v9.313z" fill="#95C0FF"/></g><defs><clipPath id="clip0"><path fill="#fff" d="M0 0h298v298H0z"/></clipPath></defs></svg>