<svg width="298" height="298" fill="none" xmlns="http://www.w3.org/2000/svg"><path fill="#06295D" d="M298 292.966H144.973V0H298z"/><path fill-rule="evenodd" clip-rule="evenodd" d="M149 298a4.656 4.656 0 0 1-3.906-2.119l-60.531-93.125 7.813-5.075L149 284.8l56.625-87.119 7.813 5.075-60.531 93.125A4.657 4.657 0 0 1 149 298z" fill="#95C0FF"/><path fill-rule="evenodd" clip-rule="evenodd" d="M149 27.938c-46.213 0-83.813 37.599-83.813 83.812s37.6 83.812 83.813 83.812 83.812-37.599 83.812-83.812S195.213 27.937 149 27.937zm0 176.937c-51.35 0-93.125-41.776-93.125-93.125 0-51.35 41.776-93.125 93.125-93.125s93.125 41.776 93.125 93.125-41.776 93.125-93.125 93.125z" fill="#95C0FF"/><path fill-rule="evenodd" clip-rule="evenodd" d="M149 27.938c-30.81 0-55.875 37.599-55.875 83.812S118.19 195.562 149 195.562s55.875-37.599 55.875-83.812S179.81 27.937 149 27.937zm0 176.937c-35.946 0-65.188-41.776-65.188-93.125 0-51.35 29.242-93.125 65.188-93.125s65.188 41.776 65.188 93.125-29.242 93.125-65.188 93.125z" fill="#95C0FF"/><path fill-rule="evenodd" clip-rule="evenodd" d="M149 27.938c-13.214 0-27.938 34.423-27.938 83.812 0 49.389 14.724 83.812 27.938 83.812 13.214 0 27.938-34.423 27.938-83.812 0-49.389-14.724-83.813-27.938-83.813zm0 176.937c-24.194 0-37.25-47.983-37.25-93.125S124.806 18.625 149 18.625c24.194 0 37.25 47.983 37.25 93.125s-13.056 93.125-37.25 93.125z" fill="#95C0FF"/><path fill-rule="evenodd" clip-rule="evenodd" d="M144.344 200.219h9.312V23.281h-9.312V200.22z" fill="#95C0FF"/><path fill-rule="evenodd" clip-rule="evenodd" d="M83.813 60.531h130.375V51.22H83.813v9.312zm-4.657 111.75h139.688v-9.312H79.156v9.312zm-18.625-55.875H237.47v-9.312H60.531v9.312zM0 298h298v-9.312H0V298z" fill="#95C0FF"/><path fill-rule="evenodd" clip-rule="evenodd" d="M178.013 219.696l-2.407-8.996c44.649-11.971 75.832-52.667 75.832-98.95C251.438 55.265 205.485 9.312 149 9.312S46.562 55.266 46.562 111.75c0 46.05 30.978 86.685 75.343 98.82l-2.458 8.982C71.05 206.318 37.25 161.986 37.25 111.75 37.25 50.134 87.384 0 149 0s111.75 50.134 111.75 111.75c0 50.492-34.023 94.88-82.737 107.946z" fill="#95C0FF"/></svg>