<svg width="298" height="259" fill="none" xmlns="http://www.w3.org/2000/svg"><g clip-path="url(#clip0)"><path fill="#06295D" d="M82.554 47H298v204H82.554z"/><path fill-rule="evenodd" clip-rule="evenodd" d="M93.125 222C41.775 222 0 180.504 0 129.5 0 78.5 41.776 37 93.125 37c36.202 0 69.406 21.104 84.59 53.761l-8.456 3.88c-13.666-29.396-43.55-48.391-76.134-48.391-46.213 0-83.813 37.347-83.813 83.25 0 45.908 37.6 83.25 83.813 83.25 32.296 0 62.063-18.754 75.846-47.776l8.423 3.94C162.084 201.164 129.006 222 93.125 222z" fill="#95C0FF"/><path fill-rule="evenodd" clip-rule="evenodd" d="M93.125 46.25c-30.81 0-55.875 37.347-55.875 83.25 0 45.908 25.065 83.25 55.875 83.25S149 175.408 149 129.5c0-45.903-25.065-83.25-55.875-83.25zm0 175.75c-35.946 0-65.188-41.496-65.188-92.5 0-51 29.242-92.5 65.188-92.5s65.187 41.5 65.187 92.5c0 51.004-29.241 92.5-65.187 92.5z" fill="#95C0FF"/><path fill-rule="evenodd" clip-rule="evenodd" d="M93.125 46.25c-13.214 0-27.938 34.193-27.938 83.25 0 49.062 14.724 83.25 27.938 83.25 13.214 0 27.937-34.188 27.937-83.25 0-49.057-14.723-83.25-27.937-83.25zm0 175.75c-24.194 0-37.25-47.656-37.25-92.5 0-44.84 13.056-92.5 37.25-92.5 24.194 0 37.25 47.66 37.25 92.5 0 44.844-13.056 92.5-37.25 92.5z" fill="#95C0FF"/><path fill-rule="evenodd" clip-rule="evenodd" d="M88.469 217.375h9.312V41.625H88.47v175.75z" fill="#95C0FF"/><path fill-rule="evenodd" clip-rule="evenodd" d="M27.938 74h130.374v-9.25H27.937V74zm-4.657 115.625H162.97v-9.25H23.281v9.25zm-18.625-55.5h167.625v-9.25H4.656v9.25z" fill="#95C0FF"/><path fill-rule="evenodd" clip-rule="evenodd" d="M204.875 222c-14.835 0-29.013-3.362-42.153-9.995l4.223-8.246c11.817 5.966 24.576 8.991 37.93 8.991 46.213 0 83.812-37.342 83.812-83.25 0-45.903-37.599-83.25-83.812-83.25-13.471 0-26.327 3.076-38.219 9.139l-4.256-8.228C175.619 40.418 189.91 37 204.875 37 256.224 37 298 78.5 298 129.5c0 51.004-41.776 92.5-93.125 92.5z" fill="#95C0FF"/><path fill-rule="evenodd" clip-rule="evenodd" d="M204.875 171.125c-12.837 0-23.281-10.374-23.281-23.125h9.312c0 7.65 6.268 13.875 13.969 13.875s13.969-6.225 13.969-13.875c0-6.216-4.982-8.954-13.792-13.255l-4.465-2.193c-8.903-4.347-18.993-9.273-18.993-21.552 0-12.751 10.444-23.125 23.281-23.125 12.837 0 23.281 10.374 23.281 23.125h-9.312c0-7.65-6.268-13.875-13.969-13.875S190.906 103.35 190.906 111c0 6.216 4.982 8.954 13.792 13.255l4.465 2.193c8.903 4.347 18.993 9.273 18.993 21.552 0 12.751-10.444 23.125-23.281 23.125z" fill="#95C0FF"/><path fill-rule="evenodd" clip-rule="evenodd" d="M200.219 92.5h9.312V78.625h-9.312V92.5zm0 87.875h9.312V166.5h-9.312v13.875zm37.25-46.25h9.312v-9.25h-9.312v9.25zm0-18.5h9.312v-9.25h-9.312v9.25zm0 37h9.312v-9.25h-9.312v9.25zM0 9.25h237.469V0H0v9.25zm246.781 0h9.313V0h-9.313v9.25zm18.625 0h9.313V0h-9.313v9.25zm18.625 0h9.313V0h-9.313v9.25zM23.281 259h9.313v-9.25H23.28V259zm-18.625 0h9.313v-9.25H4.656V259zm37.25 0h9.313v-9.25h-9.313V259zm18.625 0H298v-9.25H60.531V259z" fill="#95C0FF"/></g><defs><clipPath id="clip0"><path fill="#fff" d="M0 0h298v259H0z"/></clipPath></defs></svg>